<svg width="271" height="218" viewBox="0 0 271 218" fill="none" xmlns="http://www.w3.org/2000/svg">
<path d="M34.6123 172.895C33.723 170.948 33.2643 168.833 33.2673 166.692V162.268C33.2581 124.434 39.2285 86.8365 50.9576 50.8666H130.52C127.181 61.3507 124.291 72.0633 121.913 82.7796L129.007 84.3537C131.505 73.0955 134.586 61.845 138.161 50.8666H145.901C149.754 50.8623 153.448 49.3297 156.172 46.6051C158.897 43.8806 160.43 40.1865 160.434 36.3333V25.4333C160.434 24.9562 160.34 24.4837 160.157 24.0429C159.975 23.6021 159.707 23.2015 159.37 22.8641C159.032 22.5267 158.632 22.2591 158.191 22.0765C157.75 21.8939 157.278 21.8 156.801 21.8H138.634C138.638 17.9468 140.171 14.2527 142.895 11.5282C145.62 8.80357 149.314 7.27099 153.167 7.26666H153.825C157.012 7.27195 160.109 8.32231 162.642 10.2567C165.174 12.1911 167.002 14.9028 167.846 17.9759L173.193 37.5803C174.461 42.2291 175.652 46.973 176.734 51.6803L183.816 50.053C182.712 45.2508 181.497 40.411 180.203 35.6683L174.857 16.0639C173.591 11.4542 170.849 7.38675 167.05 4.48516C163.251 1.58357 158.605 0.00799883 153.825 0H55.0673C49.2876 0.00653443 43.7465 2.30541 39.6596 6.39229C35.5727 10.4792 33.2738 16.0203 33.2673 21.8V36.3333C33.2712 39.4401 34.2689 42.4642 36.1144 44.9635C37.96 47.4627 40.5567 49.306 43.5248 50.2239C31.9023 86.4357 25.99 124.237 26.0006 162.268V166.692C25.996 169.871 26.6775 173.014 27.9985 175.905L34.6123 172.895ZM153.167 29.0667V36.3333C153.167 38.2606 152.402 40.1089 151.039 41.4716C149.676 42.8344 147.828 43.6 145.901 43.6C143.973 43.6 142.125 42.8344 140.762 41.4716C139.399 40.1089 138.634 38.2606 138.634 36.3333V29.0667H153.167ZM40.534 36.3333V21.8C40.5383 17.9468 42.0709 14.2527 44.7955 11.5282C47.52 8.80357 51.2141 7.27099 55.0673 7.26666H136.932C133.345 11.2572 131.363 16.4344 131.367 21.8V36.3333C131.364 38.8853 132.037 41.3925 133.318 43.6H47.8006C45.8741 43.5978 44.027 42.8315 42.6647 41.4692C41.3025 40.1069 40.5362 38.2599 40.534 36.3333Z" fill="white" fill-opacity="0.33"/>
<path d="M208.494 96.5069L206.84 103.583C228.904 108.742 236.734 115.597 236.734 119.9C236.734 123.599 231.483 127.892 221.775 131.685C220.079 126.281 213.254 121.813 201.413 118.377L199.388 125.356C209.479 128.284 214.376 131.818 214.886 134.054C200.451 138.447 179.37 141.7 153.167 141.7C126.962 141.7 105.881 138.447 91.4456 134.054C92.1718 130.625 102.534 124.799 124.597 121.755L123.604 114.557C112.534 116.084 103.127 118.452 96.3985 121.406C89.7686 124.317 85.8027 127.765 84.5598 131.685C74.8511 127.892 69.6003 123.599 69.6003 119.9C69.6003 118.368 70.8486 112.926 86.9116 107.211C99.1477 102.857 116.306 99.8151 135.224 98.6457L134.776 91.3928C115.198 92.603 97.3342 95.7892 84.4756 100.365C66.1749 106.877 62.3336 114.582 62.3336 119.9C62.328 127.555 63.7516 135.143 66.5313 142.276L73.8842 161.183L80.6568 158.55L73.3039 139.642C72.4739 137.506 71.7792 135.32 71.2238 133.097C75.8835 136.211 82.3335 138.993 90.4899 141.372C107.281 146.27 129.54 148.967 153.167 148.967C176.794 148.967 199.053 146.27 215.844 141.372C224 138.993 230.45 136.211 235.11 133.097C234.555 135.32 233.86 137.506 233.03 139.642L220.556 171.719C219.374 174.76 217.744 177.607 215.719 180.165L221.415 184.676C223.891 181.55 225.884 178.07 227.328 174.352L239.802 142.276C242.582 135.143 244.006 127.555 244 119.9C244 106.77 221.754 99.6075 208.494 96.5069Z" fill="white" fill-opacity="0.33"/>
<path d="M179.652 68.385C161.805 74.8754 147.11 87.9368 138.572 104.9L128.117 125.805L134.617 129.055L145.072 108.149C152.327 93.7384 164.523 82.4188 179.434 76.2575C179.615 76.9651 179.851 77.6578 180.138 78.3296C170.116 86.7676 161.11 98.269 154.578 111.043L143.882 131.821L150.343 135.147L161.044 114.36C167.106 102.504 175.409 91.8595 184.623 84.0545C185.029 84.3617 185.452 84.6471 185.888 84.9097C186.372 85.1976 186.873 85.4563 187.387 85.6847C185.933 88.4089 184.416 91.243 182.837 94.1869C178.875 101.583 174.792 109.251 170.59 117.19L162.35 132.731L168.771 136.135L177.015 120.583C181.195 112.639 185.271 104.985 189.242 97.6186C191.12 94.1133 192.926 90.7425 194.63 87.5468C195.371 99.9945 192.588 112.399 186.601 123.338L181.499 132.693L187.878 136.173L192.98 126.818C200.112 113.795 203.137 98.9189 201.659 84.1447C203.137 83.0589 204.39 81.6949 205.346 80.1292L234.265 32.8066C236.231 29.5872 236.838 25.7188 235.952 22.0521C235.067 18.3853 232.761 15.2205 229.542 13.2535C226.324 11.2865 222.455 10.6784 218.788 11.563C215.121 12.4476 211.956 14.7524 209.988 17.9705L181.069 65.2932C180.475 66.2639 179.999 67.3018 179.652 68.385ZM187.269 69.0822L216.188 21.7598C216.664 20.9792 217.29 20.3001 218.029 19.7613C218.767 19.2226 219.605 18.8346 220.494 18.6197C221.382 18.4049 222.305 18.3672 223.208 18.509C224.111 18.6507 224.978 18.9691 225.758 19.4459C226.538 19.9227 227.217 20.5485 227.755 21.2877C228.293 22.0269 228.681 22.8649 228.895 23.7538C229.109 24.6427 229.146 25.5651 229.004 26.4683C228.861 27.3715 228.542 28.2377 228.065 29.0176L199.145 76.34C198.669 77.1206 198.044 77.7997 197.305 78.3384C196.566 78.8772 195.729 79.2652 194.84 79.48C193.951 79.6949 193.029 79.7326 192.126 79.5908C191.222 79.4491 190.356 79.1307 189.576 78.6539C188.795 78.1771 188.117 77.5513 187.579 76.8121C187.04 76.0729 186.653 75.2349 186.439 74.346C186.225 73.4571 186.188 72.5347 186.33 71.6315C186.473 70.7283 186.792 69.8621 187.269 69.0822Z" fill="white" fill-opacity="0.33"/>
<path d="M206.878 182.536C205.482 181.264 203.838 180.296 202.048 179.693C200.259 179.09 198.364 178.866 196.483 179.034L193.052 179.346C190.783 175.618 187.594 172.537 183.79 170.399C179.987 168.26 175.697 167.136 171.334 167.133H65.9669C61.6019 167.135 57.3105 168.259 53.5053 170.397C49.7001 172.536 46.5091 175.618 44.2389 179.346L40.8179 179.035C38.989 178.869 37.1453 179.075 35.3983 179.641C33.6512 180.207 32.0371 181.122 30.6534 182.329C29.2698 183.537 28.1452 185.012 27.3478 186.667C26.5503 188.321 26.0965 190.12 26.0138 191.954C25.9311 193.789 26.2211 195.621 26.8664 197.341C27.5117 199.06 28.4988 200.631 29.7682 201.958C31.0376 203.285 32.5628 204.341 34.2518 205.062C35.9408 205.783 37.7584 206.155 39.5949 206.154C40.0014 206.154 40.4099 206.135 40.8177 206.098L44.2385 205.787C46.5197 209.506 49.7132 212.579 53.516 214.717C57.3188 216.854 61.6047 217.984 65.9669 218H171.334C174.675 218.01 177.984 217.357 181.071 216.078C184.158 214.8 186.96 212.921 189.316 210.552C190.751 209.119 192.01 207.52 193.068 205.789L196.488 206.1C196.897 206.137 197.314 206.155 197.725 206.155C200.464 206.153 203.137 205.323 205.396 203.774C207.655 202.225 209.393 200.031 210.382 197.477C211.372 194.924 211.567 192.131 210.941 189.465C210.316 186.798 208.9 184.383 206.878 182.536ZM40.1597 198.861C39.3099 198.938 38.4533 198.843 37.6415 198.58C36.8298 198.317 36.0796 197.892 35.4363 197.332C34.7929 196.771 34.2698 196.086 33.8983 195.318C33.5268 194.55 33.3146 193.714 33.2747 192.862C33.2347 192.01 33.3677 191.158 33.6657 190.359C33.9637 189.559 34.4204 188.828 35.0085 188.21C35.5965 187.591 36.3037 187.099 37.0873 186.761C37.8709 186.423 38.7148 186.248 39.5681 186.245C39.7641 186.245 39.9614 186.254 40.1599 186.272L62.0345 188.26C63.109 188.358 64.1083 188.854 64.8359 189.651C65.5635 190.448 65.9669 191.488 65.9669 192.567C65.9669 193.646 65.5635 194.686 64.8359 195.482C64.1083 196.279 63.109 196.775 62.0345 196.873H62.0347L40.1597 198.861ZM52.7588 205.013L62.6924 204.11H62.6926C65.5731 203.848 68.2515 202.518 70.2018 200.382C72.1521 198.247 73.2335 195.459 73.2335 192.567C73.2334 189.674 72.152 186.886 70.2017 184.751C68.2513 182.615 65.5728 181.285 62.6924 181.024L52.7399 180.119C52.8664 179.985 52.9924 179.851 53.1232 179.72C55.2359 177.608 57.8368 176.049 60.6956 175.182C63.5545 174.315 66.583 174.167 69.5129 174.75C72.4429 175.333 75.1838 176.63 77.493 178.525C79.8021 180.42 81.6082 182.856 82.7512 185.616C83.8943 188.376 84.339 191.376 84.046 194.349C83.7531 197.322 82.7314 200.176 81.0716 202.66C79.4118 205.144 77.165 207.18 74.5303 208.588C71.8956 209.997 68.9543 210.733 65.9669 210.733C63.4927 210.724 61.0461 210.212 58.7757 209.229C56.5052 208.246 54.4582 206.811 52.7588 205.013ZM184.177 205.413C182.495 207.106 180.493 208.448 178.289 209.361C176.084 210.274 173.72 210.741 171.334 210.733H83.7422C86.1661 208.369 88.0923 205.544 89.4075 202.424C90.7227 199.304 91.4003 195.952 91.4003 192.567C91.4003 189.181 90.7227 185.829 89.4075 182.709C88.0923 179.589 86.1661 176.764 83.7422 174.4H171.334C174.927 174.4 178.439 175.465 181.427 177.462C184.415 179.458 186.743 182.295 188.118 185.615C189.493 188.935 189.852 192.588 189.151 196.112C188.449 199.636 186.719 202.873 184.177 205.413ZM197.725 198.889C197.529 198.889 197.331 198.88 197.141 198.863L196.012 198.76C197.022 194.693 197.018 190.44 196.001 186.374L197.139 186.271C197.99 186.193 198.847 186.289 199.659 186.552C200.471 186.815 201.222 187.24 201.865 187.801C202.509 188.362 203.032 189.047 203.404 189.816C203.775 190.585 203.987 191.421 204.027 192.274C204.066 193.126 203.933 193.978 203.634 194.778C203.335 195.578 202.878 196.309 202.289 196.927C201.7 197.545 200.992 198.038 200.208 198.375C199.423 198.712 198.579 198.887 197.725 198.889L197.725 198.889Z" fill="white" fill-opacity="0.33"/>
<path d="M3.912 89.464C3.912 89.128 4 88.864 4.176 88.672C4.352 88.464 4.616 88.36 4.968 88.36H20.472C22.12 88.36 23.664 88.672 25.104 89.296C26.544 89.904 27.8 90.736 28.872 91.792C29.944 92.848 30.784 94.088 31.392 95.512C32.016 96.92 32.328 98.424 32.328 100.024C32.328 101.112 32.176 102.152 31.872 103.144C31.584 104.12 31.176 105.04 30.648 105.904C30.12 106.752 29.488 107.528 28.752 108.232C28.032 108.92 27.24 109.512 26.376 110.008L32.544 121.624C32.656 121.848 32.8 122.112 32.976 122.416C33.152 122.72 33.24 122.984 33.24 123.208C33.24 123.464 33.152 123.664 32.976 123.808C32.816 123.936 32.592 124 32.304 124H24.072C23.8 124 23.552 123.92 23.328 123.76C23.12 123.6 22.984 123.384 22.92 123.112L17.088 112.144H13.2V122.968C13.2 123.656 12.832 124 12.096 124H4.968C4.648 124 4.392 123.92 4.2 123.76C4.008 123.584 3.912 123.32 3.912 122.968V89.464ZM22.704 100.12C22.704 99.64 22.616 99.16 22.44 98.68C22.264 98.2 22.016 97.76 21.696 97.36C21.376 96.96 20.992 96.624 20.544 96.352C20.096 96.08 19.6 95.904 19.056 95.824C18.608 95.792 18.184 95.768 17.784 95.752C17.4 95.72 16.976 95.704 16.512 95.704H13.2V104.512H17.616C17.904 104.512 18.16 104.504 18.384 104.488C18.608 104.472 18.856 104.448 19.128 104.416C19.688 104.352 20.192 104.192 20.64 103.936C21.088 103.664 21.464 103.336 21.768 102.952C22.072 102.552 22.304 102.112 22.464 101.632C22.624 101.136 22.704 100.632 22.704 100.12ZM60.5254 120.352C59.1174 121.648 57.5334 122.664 55.7734 123.4C54.0134 124.12 52.1494 124.48 50.1814 124.48C47.9894 124.48 45.9174 124.08 43.9654 123.28C42.0134 122.48 40.3014 121.376 38.8294 119.968C37.3574 118.544 36.1894 116.872 35.3254 114.952C34.4614 113.032 34.0294 110.944 34.0294 108.688C34.0294 107.28 34.1974 105.92 34.5334 104.608C34.8854 103.28 35.3734 102.04 35.9974 100.888C36.6374 99.736 37.4054 98.68 38.3014 97.72C39.2134 96.744 40.2294 95.912 41.3494 95.224C42.4694 94.536 43.6854 94 44.9974 93.616C46.3094 93.232 47.6934 93.04 49.1494 93.04C50.4774 93.04 51.7654 93.216 53.0134 93.568C54.2614 93.92 55.4294 94.416 56.5174 95.056C57.6214 95.696 58.6294 96.464 59.5414 97.36C60.4534 98.256 61.2374 99.24 61.8934 100.312C62.5494 101.368 63.0534 102.504 63.4054 103.72C63.7734 104.92 63.9574 106.16 63.9574 107.44C63.9574 108.272 63.9414 108.952 63.9094 109.48C63.8934 110.008 63.7734 110.432 63.5494 110.752C63.3254 111.056 62.9494 111.272 62.4214 111.4C61.9094 111.512 61.1494 111.568 60.1414 111.568H42.8614C43.0214 112.592 43.3414 113.448 43.8214 114.136C44.3174 114.824 44.8854 115.376 45.5254 115.792C46.1654 116.192 46.8454 116.48 47.5654 116.656C48.2854 116.832 48.9654 116.92 49.6054 116.92C50.1814 116.92 50.7734 116.864 51.3814 116.752C51.9894 116.624 52.5734 116.464 53.1334 116.272C53.7094 116.064 54.2294 115.832 54.6934 115.576C55.1734 115.304 55.5574 115.024 55.8454 114.736C56.1014 114.528 56.3174 114.376 56.4934 114.28C56.6854 114.168 56.8854 114.112 57.0934 114.112C57.3014 114.112 57.5094 114.184 57.7174 114.328C57.9414 114.472 58.1894 114.68 58.4614 114.952L61.0054 117.832C61.1814 118.04 61.2934 118.232 61.3414 118.408C61.3894 118.568 61.4134 118.736 61.4134 118.912C61.4134 119.232 61.3254 119.512 61.1494 119.752C60.9734 119.976 60.7654 120.176 60.5254 120.352ZM48.9814 100.36C48.3574 100.36 47.7494 100.488 47.1574 100.744C46.5814 100.984 46.0374 101.312 45.5254 101.728C45.0134 102.144 44.5494 102.616 44.1334 103.144C43.7334 103.672 43.4054 104.208 43.1494 104.752H55.4134C55.0774 104.128 54.7094 103.552 54.3094 103.024C53.9254 102.496 53.4774 102.032 52.9654 101.632C52.4694 101.232 51.8934 100.92 51.2374 100.696C50.5974 100.472 49.8454 100.36 48.9814 100.36ZM88.4858 114.616C88.7098 114.456 88.9178 114.36 89.1098 114.328C89.3178 114.28 89.4778 114.256 89.5898 114.256C89.8618 114.256 90.1098 114.312 90.3337 114.424C90.5578 114.536 90.7898 114.776 91.0298 115.144L93.7178 119.2C93.7978 119.328 93.8698 119.472 93.9338 119.632C94.0138 119.792 94.0538 119.92 94.0538 120.016C94.0538 120.384 93.9338 120.688 93.6938 120.928C93.4698 121.152 93.2218 121.352 92.9498 121.528C91.6378 122.44 90.1978 123.176 88.6298 123.736C87.0778 124.28 85.4298 124.552 83.6858 124.552C82.2458 124.552 80.8538 124.368 79.5098 124C78.1818 123.632 76.9418 123.112 75.7898 122.44C74.6378 121.752 73.5818 120.936 72.6218 119.992C71.6618 119.032 70.8458 117.968 70.1738 116.8C69.5018 115.632 68.9738 114.376 68.5898 113.032C68.2218 111.672 68.0378 110.256 68.0378 108.784C68.0378 107.312 68.2218 105.896 68.5898 104.536C68.9738 103.176 69.5018 101.92 70.1738 100.768C70.8458 99.6 71.6618 98.544 72.6218 97.6C73.5818 96.64 74.6378 95.824 75.7898 95.152C76.9418 94.48 78.1818 93.96 79.5098 93.592C80.8538 93.224 82.2458 93.04 83.6858 93.04C85.4298 93.04 87.0378 93.272 88.5098 93.736C89.9978 94.2 91.3898 94.888 92.6858 95.8L92.6138 95.728C92.9658 95.936 93.2458 96.184 93.4538 96.472C93.6618 96.744 93.7657 97.088 93.7657 97.504C93.7657 97.792 93.6698 98.088 93.4778 98.392L91.3418 102.016C90.8938 102.8 90.3498 103.192 89.7098 103.192C89.5658 103.192 89.3898 103.16 89.1818 103.096C88.9738 103.016 88.7418 102.888 88.4858 102.712C87.7818 102.248 87.0218 101.872 86.2058 101.584C85.4058 101.28 84.5498 101.128 83.6378 101.128C82.6298 101.128 81.7018 101.336 80.8538 101.752C80.0058 102.152 79.2778 102.704 78.6698 103.408C78.0778 104.112 77.6138 104.928 77.2778 105.856C76.9418 106.784 76.7738 107.76 76.7738 108.784C76.7738 109.84 76.9418 110.832 77.2778 111.76C77.6138 112.672 78.0778 113.464 78.6698 114.136C79.2778 114.808 80.0058 115.344 80.8538 115.744C81.7018 116.128 82.6298 116.32 83.6378 116.32C84.5498 116.32 85.4058 116.16 86.2058 115.84C87.0058 115.52 87.7658 115.112 88.4858 114.616ZM98.5748 95.392C98.5748 94.88 98.7188 94.44 99.0068 94.072C99.2948 93.704 99.7428 93.52 100.351 93.52H105.847C106.039 93.52 106.247 93.568 106.471 93.664C106.695 93.744 106.903 93.872 107.095 94.048C107.287 94.208 107.447 94.4 107.575 94.624C107.719 94.848 107.791 95.104 107.791 95.392V122.152C107.791 122.76 107.623 123.224 107.287 123.544C106.951 123.848 106.471 124 105.847 124H100.351C99.1668 124 98.5748 123.384 98.5748 122.152V95.392ZM98.5748 83.248C98.5748 82.576 98.7188 82.104 99.0068 81.832C99.2948 81.544 99.7428 81.4 100.351 81.4H105.919C106.479 81.4 106.927 81.544 107.263 81.832C107.615 82.104 107.791 82.576 107.791 83.248V87.928C107.791 88.12 107.743 88.328 107.647 88.552C107.567 88.776 107.447 88.992 107.287 89.2C107.127 89.408 106.927 89.584 106.687 89.728C106.463 89.856 106.207 89.92 105.919 89.92H100.351C99.1668 89.92 98.5748 89.256 98.5748 87.928V83.248ZM114.176 93.808C114.384 93.632 114.6 93.52 114.824 93.472C115.048 93.424 115.264 93.4 115.472 93.4H119.096C119.4 93.4 119.648 93.448 119.84 93.544C120.048 93.64 120.216 93.776 120.344 93.952C120.472 94.112 120.576 94.304 120.656 94.528C120.752 94.736 120.84 94.968 120.92 95.224L121.928 98.128C122.376 97.552 122.824 96.968 123.272 96.376C123.736 95.768 124.28 95.224 124.904 94.744C125.528 94.248 126.272 93.84 127.136 93.52C128 93.2 129.056 93.04 130.304 93.04C132.496 93.04 134.512 93.448 136.352 94.264C138.208 95.064 139.8 96.176 141.128 97.6C142.472 99.008 143.52 100.672 144.272 102.592C145.024 104.496 145.4 106.56 145.4 108.784C145.4 110.992 145.024 113.056 144.272 114.976C143.52 116.896 142.472 118.568 141.128 119.992C139.8 121.4 138.208 122.512 136.352 123.328C134.512 124.144 132.496 124.552 130.304 124.552C129.264 124.552 128.368 124.424 127.616 124.168C126.864 123.928 126.192 123.608 125.6 123.208C125.024 122.808 124.512 122.368 124.064 121.888C123.616 121.408 123.176 120.928 122.744 120.448V131.632C122.744 132.112 122.6 132.52 122.312 132.856C122.024 133.192 121.576 133.36 120.968 133.36H115.472C115.28 133.36 115.072 133.32 114.848 133.24C114.624 133.16 114.416 133.048 114.224 132.904C114.032 132.76 113.872 132.576 113.744 132.352C113.616 132.144 113.552 131.904 113.552 131.632V95.176C113.552 94.856 113.608 94.592 113.72 94.384C113.848 94.176 114 93.984 114.176 93.808ZM136.592 108.784C136.592 107.76 136.424 106.792 136.088 105.88C135.752 104.952 135.28 104.144 134.672 103.456C134.064 102.768 133.336 102.224 132.488 101.824C131.64 101.424 130.704 101.224 129.68 101.224C128.672 101.224 127.712 101.416 126.8 101.8C125.904 102.168 125.112 102.68 124.424 103.336C123.752 103.976 123.2 104.736 122.768 105.616C122.352 106.496 122.12 107.432 122.072 108.424V108.784C122.072 109.84 122.272 110.832 122.672 111.76C123.072 112.688 123.616 113.496 124.304 114.184C124.992 114.856 125.8 115.392 126.728 115.792C127.656 116.192 128.64 116.392 129.68 116.392C130.704 116.392 131.64 116.192 132.488 115.792C133.336 115.392 134.064 114.856 134.672 114.184C135.28 113.496 135.752 112.688 136.088 111.76C136.424 110.832 136.592 109.84 136.592 108.784ZM175.744 120.352C174.336 121.648 172.752 122.664 170.992 123.4C169.232 124.12 167.368 124.48 165.4 124.48C163.208 124.48 161.136 124.08 159.184 123.28C157.232 122.48 155.52 121.376 154.048 119.968C152.576 118.544 151.408 116.872 150.544 114.952C149.68 113.032 149.248 110.944 149.248 108.688C149.248 107.28 149.416 105.92 149.752 104.608C150.104 103.28 150.592 102.04 151.216 100.888C151.856 99.736 152.624 98.68 153.52 97.72C154.432 96.744 155.448 95.912 156.568 95.224C157.688 94.536 158.904 94 160.216 93.616C161.528 93.232 162.912 93.04 164.368 93.04C165.696 93.04 166.984 93.216 168.232 93.568C169.48 93.92 170.648 94.416 171.736 95.056C172.84 95.696 173.848 96.464 174.76 97.36C175.672 98.256 176.456 99.24 177.112 100.312C177.768 101.368 178.272 102.504 178.624 103.72C178.992 104.92 179.176 106.16 179.176 107.44C179.176 108.272 179.16 108.952 179.128 109.48C179.112 110.008 178.992 110.432 178.768 110.752C178.544 111.056 178.168 111.272 177.64 111.4C177.128 111.512 176.368 111.568 175.36 111.568H158.08C158.24 112.592 158.56 113.448 159.04 114.136C159.536 114.824 160.104 115.376 160.744 115.792C161.384 116.192 162.064 116.48 162.784 116.656C163.504 116.832 164.184 116.92 164.824 116.92C165.4 116.92 165.992 116.864 166.6 116.752C167.208 116.624 167.792 116.464 168.352 116.272C168.928 116.064 169.448 115.832 169.912 115.576C170.392 115.304 170.776 115.024 171.064 114.736C171.32 114.528 171.536 114.376 171.712 114.28C171.904 114.168 172.104 114.112 172.312 114.112C172.52 114.112 172.728 114.184 172.936 114.328C173.16 114.472 173.408 114.68 173.68 114.952L176.224 117.832C176.4 118.04 176.512 118.232 176.56 118.408C176.608 118.568 176.632 118.736 176.632 118.912C176.632 119.232 176.544 119.512 176.368 119.752C176.192 119.976 175.984 120.176 175.744 120.352ZM164.2 100.36C163.576 100.36 162.968 100.488 162.376 100.744C161.8 100.984 161.256 101.312 160.744 101.728C160.232 102.144 159.768 102.616 159.352 103.144C158.952 103.672 158.624 104.208 158.368 104.752H170.632C170.296 104.128 169.928 103.552 169.528 103.024C169.144 102.496 168.696 102.032 168.184 101.632C167.688 101.232 167.112 100.92 166.456 100.696C165.816 100.472 165.064 100.36 164.2 100.36ZM205.913 121C205.481 121.432 204.985 121.864 204.425 122.296C203.881 122.712 203.281 123.088 202.625 123.424C201.985 123.76 201.289 124.032 200.537 124.24C199.801 124.448 199.017 124.552 198.185 124.552C196.009 124.552 194.001 124.144 192.161 123.328C190.337 122.512 188.761 121.4 187.433 119.992C186.121 118.568 185.089 116.896 184.337 114.976C183.601 113.056 183.233 110.992 183.233 108.784C183.233 106.56 183.601 104.496 184.337 102.592C185.089 100.672 186.121 99.008 187.433 97.6C188.761 96.176 190.337 95.064 192.161 94.264C194.001 93.448 196.009 93.04 198.185 93.04C199.065 93.04 199.865 93.12 200.585 93.28C201.321 93.424 201.985 93.64 202.577 93.928C203.185 94.216 203.737 94.56 204.233 94.96C204.745 95.36 205.225 95.8 205.673 96.28V86.272C205.673 85.76 205.825 85.328 206.129 84.976C206.449 84.624 206.921 84.448 207.545 84.448H212.945C213.153 84.448 213.369 84.496 213.593 84.592C213.833 84.672 214.049 84.792 214.241 84.952C214.433 85.112 214.585 85.304 214.697 85.528C214.825 85.752 214.889 86 214.889 86.272V122.152C214.889 123.384 214.241 124 212.945 124H208.241C207.921 124 207.673 123.96 207.497 123.88C207.321 123.8 207.169 123.688 207.041 123.544C206.929 123.384 206.825 123.192 206.729 122.968C206.633 122.728 206.513 122.456 206.369 122.152L205.913 121ZM191.873 108.784C191.873 109.84 192.033 110.832 192.353 111.76C192.689 112.672 193.161 113.464 193.769 114.136C194.377 114.808 195.105 115.344 195.953 115.744C196.817 116.128 197.769 116.32 198.809 116.32C199.833 116.32 200.793 116.136 201.689 115.768C202.601 115.4 203.393 114.896 204.065 114.256C204.737 113.6 205.273 112.832 205.673 111.952C206.089 111.072 206.321 110.128 206.369 109.12V108.784C206.369 107.76 206.177 106.784 205.793 105.856C205.409 104.928 204.873 104.112 204.185 103.408C203.513 102.704 202.713 102.152 201.785 101.752C200.873 101.336 199.881 101.128 198.809 101.128C197.769 101.128 196.817 101.336 195.953 101.752C195.105 102.152 194.377 102.704 193.769 103.408C193.161 104.112 192.689 104.928 192.353 105.856C192.033 106.784 191.873 107.76 191.873 108.784ZM221.247 95.392C221.247 94.88 221.391 94.44 221.679 94.072C221.967 93.704 222.415 93.52 223.023 93.52H228.519C228.711 93.52 228.919 93.568 229.143 93.664C229.367 93.744 229.575 93.872 229.767 94.048C229.959 94.208 230.119 94.4 230.247 94.624C230.391 94.848 230.463 95.104 230.463 95.392V122.152C230.463 122.76 230.295 123.224 229.959 123.544C229.623 123.848 229.143 124 228.519 124H223.023C221.839 124 221.247 123.384 221.247 122.152V95.392ZM221.247 83.248C221.247 82.576 221.391 82.104 221.679 81.832C221.967 81.544 222.415 81.4 223.023 81.4H228.591C229.151 81.4 229.599 81.544 229.935 81.832C230.287 82.104 230.463 82.576 230.463 83.248V87.928C230.463 88.12 230.415 88.328 230.319 88.552C230.239 88.776 230.119 88.992 229.959 89.2C229.799 89.408 229.599 89.584 229.359 89.728C229.135 89.856 228.879 89.92 228.591 89.92H223.023C221.839 89.92 221.247 89.256 221.247 87.928V83.248ZM267.592 122.224C267.592 122.496 267.544 122.76 267.448 123.016C267.352 123.256 267.192 123.448 266.968 123.592C266.792 123.768 266.584 123.88 266.344 123.928C266.104 123.976 265.896 124 265.72 124H260.992C260.656 124 260.384 123.96 260.176 123.88C259.968 123.784 259.8 123.656 259.672 123.496C259.544 123.336 259.432 123.144 259.336 122.92C259.256 122.68 259.168 122.424 259.072 122.152L258.76 121.072C258.328 121.504 257.832 121.928 257.272 122.344C256.728 122.76 256.12 123.136 255.448 123.472C254.792 123.792 254.08 124.048 253.312 124.24C252.56 124.448 251.776 124.552 250.96 124.552C249.504 124.552 248.104 124.368 246.76 124C245.432 123.632 244.184 123.112 243.016 122.44C241.864 121.752 240.816 120.936 239.872 119.992C238.928 119.032 238.112 117.968 237.424 116.8C236.752 115.632 236.232 114.376 235.864 113.032C235.496 111.672 235.312 110.256 235.312 108.784C235.312 106.56 235.72 104.496 236.536 102.592C237.352 100.672 238.464 99.008 239.872 97.6C241.28 96.176 242.936 95.064 244.84 94.264C246.744 93.448 248.784 93.04 250.96 93.04C251.952 93.04 252.872 93.152 253.72 93.376C254.584 93.6 255.368 93.904 256.072 94.288C256.792 94.672 257.44 95.136 258.016 95.68C258.592 96.208 259.096 96.784 259.528 97.408L260.224 95.224C260.384 94.824 260.512 94.504 260.608 94.264C260.72 94.008 260.832 93.824 260.944 93.712C261.072 93.584 261.224 93.504 261.4 93.472C261.576 93.424 261.824 93.4 262.144 93.4H265.72C265.896 93.4 266.104 93.424 266.344 93.472C266.584 93.52 266.792 93.632 266.968 93.808C267.192 93.984 267.352 94.184 267.448 94.408C267.544 94.632 267.592 94.888 267.592 95.176V122.224ZM243.952 108.784C243.952 109.84 244.112 110.832 244.432 111.76C244.768 112.672 245.24 113.464 245.848 114.136C246.456 114.808 247.184 115.344 248.032 115.744C248.896 116.128 249.848 116.32 250.888 116.32C251.96 116.32 252.952 116.128 253.864 115.744C254.792 115.344 255.592 114.808 256.264 114.136C256.952 113.464 257.488 112.672 257.872 111.76C258.256 110.832 258.448 109.84 258.448 108.784C258.448 107.76 258.256 106.784 257.872 105.856C257.488 104.928 256.952 104.112 256.264 103.408C255.592 102.704 254.792 102.152 253.864 101.752C252.952 101.336 251.96 101.128 250.888 101.128C249.848 101.128 248.896 101.336 248.032 101.752C247.184 102.152 246.456 102.704 245.848 103.408C245.24 104.112 244.768 104.928 244.432 105.856C244.112 106.784 243.952 107.76 243.952 108.784Z" fill="white"/>
</svg>
